<?xml version="1.0"?>
<!-- Generated by SVGo and Plotinum VG -->
<svg width="1000pt" height="500pt" viewBox="0 0 1000 500"
	xmlns="http://www.w3.org/2000/svg"
	xmlns:xlink="http://www.w3.org/1999/xlink">
<g transform="scale(1, -1) translate(0, -500)">
<path d="M0,0L1000,0L1000,500L0,500Z" style="fill:#FFFFFF" />
<text x="175.85" y="-3.252" transform="scale(1, -1)"
	style="font-family:Liberation Serif;font-variant:normal;font-weight:normal;font-style:normal;font-size:10px">2</text>
<text x="448.9" y="-3.252" transform="scale(1, -1)"
	style="font-family:Liberation Serif;font-variant:normal;font-weight:normal;font-style:normal;font-size:10px">4</text>
<text x="721.95" y="-3.252" transform="scale(1, -1)"
	style="font-family:Liberation Serif;font-variant:normal;font-weight:normal;font-style:normal;font-size:10px">6</text>
<text x="995" y="-3.252" transform="scale(1, -1)"
	style="font-family:Liberation Serif;font-variant:normal;font-weight:normal;font-style:normal;font-size:10px">8</text>
<path d="M178.35,11.074L178.35,19.074" style="fill:none;stroke:#000000;stroke-width:0.5" />
<path d="M451.4,11.074L451.4,19.074" style="fill:none;stroke:#000000;stroke-width:0.5" />
<path d="M724.45,11.074L724.45,19.074" style="fill:none;stroke:#000000;stroke-width:0.5" />
<path d="M997.5,11.074L997.5,19.074" style="fill:none;stroke:#000000;stroke-width:0.5" />
<path d="M314.88,15.074L314.88,19.074" style="fill:none;stroke:#000000;stroke-width:0.5" />
<path d="M587.93,15.074L587.93,19.074" style="fill:none;stroke:#000000;stroke-width:0.5" />
<path d="M860.98,15.074L860.98,19.074" style="fill:none;stroke:#000000;stroke-width:0.5" />
<path d="M41.828,19.074L997.5,19.074" style="fill:none;stroke:#000000;stroke-width:0.5" />
<text x="0" y="-32.063" transform="scale(1, -1)"
	style="font-family:Liberation Serif;font-variant:normal;font-weight:normal;font-style:normal;font-size:10px">5e+07</text>
<text x="0" y="-225.98" transform="scale(1, -1)"
	style="font-family:Liberation Serif;font-variant:normal;font-weight:normal;font-style:normal;font-size:10px">1e+08</text>
<text x="0" y="-419.9" transform="scale(1, -1)"
	style="font-family:Liberation Serif;font-variant:normal;font-weight:normal;font-style:normal;font-size:10px">2e+08</text>
<path d="M27.578,34.348L35.578,34.348" style="fill:none;stroke:#000000;stroke-width:0.5" />
<path d="M27.578,228.27L35.578,228.27" style="fill:none;stroke:#000000;stroke-width:0.5" />
<path d="M27.578,422.18L35.578,422.18" style="fill:none;stroke:#000000;stroke-width:0.5" />
<path d="M31.578,73.132L35.578,73.132" style="fill:none;stroke:#000000;stroke-width:0.5" />
<path d="M31.578,111.92L35.578,111.92" style="fill:none;stroke:#000000;stroke-width:0.5" />
<path d="M31.578,150.7L35.578,150.7" style="fill:none;stroke:#000000;stroke-width:0.5" />
<path d="M31.578,189.48L35.578,189.48" style="fill:none;stroke:#000000;stroke-width:0.5" />
<path d="M31.578,267.05L35.578,267.05" style="fill:none;stroke:#000000;stroke-width:0.5" />
<path d="M31.578,305.83L35.578,305.83" style="fill:none;stroke:#000000;stroke-width:0.5" />
<path d="M31.578,344.62L35.578,344.62" style="fill:none;stroke:#000000;stroke-width:0.5" />
<path d="M31.578,383.4L35.578,383.4" style="fill:none;stroke:#000000;stroke-width:0.5" />
<path d="M31.578,460.97L35.578,460.97" style="fill:none;stroke:#000000;stroke-width:0.5" />
<path d="M35.578,24.824L35.578,499.5" style="fill:none;stroke:#000000;stroke-width:0.5" />
<path d="M41.828,499.5L178.35,240.79L314.88,120.5L451.4,90.801L587.93,60.527L724.45,48.194L860.98,30.043L997.5,24.824" style="fill:none;stroke:#000000" />
</g>
</svg>
